<svg xmlns="http://www.w3.org/2000/svg" height="24px" viewBox="0 0 24 24" width="24px">
    <path d="M0 0h24v24H0V0z" fill="none"/>
    <path fill="white" d="M20.01 15.38c-1.23 0-2.42-.2-3.53-.56-.35-.12-.74-.03-1.01.24l-1.57 1.57c-2.83-1.35-5.21-3.72-6.56-6.56l1.57-1.57c.27-.27.36-.66.25-1.01-.37-1.11-.56-2.3-.56-3.53 0-.54-.45-.99-.99-.99H4.01c-.55 0-.99.45-.99.99 0 9.32 7.67 16.99 16.99 16.99.54 0 .99-.44.99-.99v-3.51c0-.54-.45-.99-.99-.99z"/>
    <path fill="#FF5555" d="M19 5h-2v2.5h-2.5v2h2.5v2.5h2V9.5h2.5v-2H19V5z"/>
</svg>