<svg xmlns="http://www.w3.org/2000/svg" height="24px" viewBox="0 0 24 24" width="24px" fill="white">
    <path d="M0 0h24v24H0V0z" fill="none"/>
    <path fill-rule="evenodd" d="M15.96 3.06c-.21-1.17-1.23-2.06-2.46-2.06-1.23 0-2.25.89-2.46 2.06-.18-.04-.36-.06-.54-.06-1.38 0-2.5 1.12-2.5 2.5v6.34l-1.14-1.31c-.6-.68-1.49-1.02-2.39-.91-2.13.27-3.13 2.77-1.77 4.43l4.69 5.73c1.67 2.04 4.16 3.22 6.8 3.22 4.31 0 7.81-3.5 7.81-7.81V7.5c0-1.38-1.12-2.5-2.5-2.5-.19 0-.37.02-.54-.06-.21-1.17-1.23-2.06-2.46-2.06z M13 17h2v2h-2v-2zm0-8h2v6h-2V9z"/>
</svg>